<?xml version="1.0" standalone="no"?>
<svg xmlns:xlink="http://www.w3.org/1999/xlink" id="wave" style="transform:rotate(0deg); transition: 0.3s" viewBox="0 0 1440 490" version="1.1" xmlns="http://www.w3.org/2000/svg"><defs><linearGradient id="sw-gradient-0" x1="0" x2="0" y1="1" y2="0"><stop stop-color="rgba(243, 106, 62, 1)" offset="0%"/><stop stop-color="rgba(255, 179, 11, 1)" offset="100%"/></linearGradient></defs><path style="transform:translate(0, 0px); opacity:1" fill="url(#sw-gradient-0)" d="M0,245L60,253.2C120,261,240,278,360,253.2C480,229,600,163,720,171.5C840,180,960,261,1080,245C1200,229,1320,114,1440,130.7C1560,147,1680,294,1800,294C1920,294,2040,147,2160,147C2280,147,2400,294,2520,334.8C2640,376,2760,310,2880,261.3C3000,212,3120,180,3240,179.7C3360,180,3480,212,3600,261.3C3720,310,3840,376,3960,359.3C4080,343,4200,245,4320,187.8C4440,131,4560,114,4680,130.7C4800,147,4920,196,5040,220.5C5160,245,5280,245,5400,220.5C5520,196,5640,147,5760,179.7C5880,212,6000,327,6120,367.5C6240,408,6360,376,6480,310.3C6600,245,6720,147,6840,89.8C6960,33,7080,16,7200,81.7C7320,147,7440,294,7560,326.7C7680,359,7800,278,7920,269.5C8040,261,8160,327,8280,326.7C8400,327,8520,261,8580,228.7L8640,196L8640,490L8580,490C8520,490,8400,490,8280,490C8160,490,8040,490,7920,490C7800,490,7680,490,7560,490C7440,490,7320,490,7200,490C7080,490,6960,490,6840,490C6720,490,6600,490,6480,490C6360,490,6240,490,6120,490C6000,490,5880,490,5760,490C5640,490,5520,490,5400,490C5280,490,5160,490,5040,490C4920,490,4800,490,4680,490C4560,490,4440,490,4320,490C4200,490,4080,490,3960,490C3840,490,3720,490,3600,490C3480,490,3360,490,3240,490C3120,490,3000,490,2880,490C2760,490,2640,490,2520,490C2400,490,2280,490,2160,490C2040,490,1920,490,1800,490C1680,490,1560,490,1440,490C1320,490,1200,490,1080,490C960,490,840,490,720,490C600,490,480,490,360,490C240,490,120,490,60,490L0,490Z"/></svg>